<?xml version="1.0" encoding="utf-8"?>
<!-- Generator: Adobe Illustrator 16.0.0, SVG Export Plug-In . SVG Version: 6.00 Build 0)  -->
<!DOCTYPE svg PUBLIC "-//W3C//DTD SVG 1.1//EN" "http://www.w3.org/Graphics/SVG/1.1/DTD/svg11.dtd">
<svg version="1.1" id="Capa_1" xmlns="http://www.w3.org/2000/svg" xmlns:xlink="http://www.w3.org/1999/xlink" x="0px" y="0px"
	 width="1280px" height="560px" viewBox="0 0 1280 560" enable-background="new 0 0 1280 560" xml:space="preserve">
<g>
	<path fill="#009999" d="M164,352.663c0,14.476-11.738,26.226-26.221,26.226c-14.476,0-26.201-11.75-26.201-26.226
		c0-14.526,11.726-26.251,26.201-26.251c0.35,0,0.669,0,0.975,0.024l-26.701-42.802h-17.6
		c-1.781,12.775-12.714,22.576-25.958,22.576c-14.47,0-26.208-11.726-26.208-26.207c0-14.495,11.738-26.258,26.208-26.258
		c11.876,0,21.876,7.9,25.114,18.701h24.639l39.326,62.99C161.58,340.063,164,346.063,164,352.663 M164,207.331
		c0,14.495-11.738,26.245-26.221,26.245l-0.699-0.025l22.551,33.215l-13.582,0.112l-31.958-47.44l0.319-0.225
		c-1.819-3.563-2.844-7.606-2.844-11.895c0-14.488,11.725-26.226,26.201-26.226C152.249,181.093,164,192.843,164,207.331
		 M263.93,335.313l-0.038-55.016v-0.293c0-30.583-24.751-55.365-55.296-55.365c-6.9,0-13.494,1.269-19.57,3.574
		c2.619-6.443,4.045-13.494,4.045-20.882c0-30.57-24.758-55.347-55.278-55.347c-30.552,0-55.296,24.776-55.284,55.347
		c0,7.145,1.344,13.981,3.813,20.251c-5.588-1.906-11.568-2.943-17.825-2.943c-30.533,0-55.278,24.795-55.278,55.377
		c0,30.545,24.758,55.347,55.278,55.347c6.244,0,12.237-1.05,17.825-2.925c-2.443,6.25-3.813,13.088-3.813,20.226
		c0,30.589,24.758,55.353,55.284,55.353c30.558,0,55.303-24.776,55.303-55.328c0-7.4-1.45-14.45-4.069-20.9
		c6.101,2.325,12.695,3.575,19.57,3.575c5.057,0,9.957-0.675,14.606-1.95v-31.627c-4.175,2.826-9.194,4.451-14.606,4.451
		c-14.477,0-26.201-11.727-26.201-26.208c0-14.494,11.725-26.245,26.201-26.245c14.475,0,26.201,11.738,26.201,26.245v0.294h-0.15
		v55.015h29.283V335.313z"/>
	<g>
		<g>
			<path fill="#009999" d="M400.448,297.586h-35.021l18.025-54.628h0.382L400.448,297.586z M460.501,353.838l-53.853-139.693H361.04
				l-53.059,139.693h37.808l11.014-29.813h52.427l10.419,29.813H460.501z"/>
			<rect x="469.982" y="203.725" fill="#009999" width="36.033" height="150.113"/>
			<path fill="#009999" d="M597.682,291.811h-40.026c0.807-12.039,7.001-21.833,20.021-21.833
				C592.088,269.978,597.682,279.771,597.682,291.811 M630.109,312.211v-6.6c0-31.039-14.008-58.447-52.641-58.447
				c-32.408,0-55.834,20.026-55.834,54.446c0,34.401,26.227,54.653,60.635,54.653c13.412,0,26.639-2,38.238-6.613v-25.414
				c-10.818,5.788-22.031,8.001-31.826,8.001c-17.613,0-28.607-5.601-30.62-20.001L630.109,312.211L630.109,312.211z"/>
			<path fill="#009999" d="M642.828,353.838h36.014v-44.002c0-22.438,7.613-32.639,20.414-32.639
				c10.225,0,14.426,8.807,14.426,20.613v56.027h36.014v-44.002c0-22.438,7.613-32.639,20.414-32.639
				c10.225,0,14.426,8.807,14.426,20.613v56.027h36.014V292.41c0-28.22-6.824-45.246-36.826-45.246
				c-14.826,0-28.627,6.02-37.053,20.026c-5.574-13.613-17.775-20.026-32.602-20.026c-16.426,0-30.801,6.606-38.025,21.626h-0.4
				v-19.213h-32.814V353.838z"/>
			<path fill="#009999" d="M902.652,307.599c0,12.213-8.613,24.613-22.225,24.613c-8.4,0-14.801-4.175-14.801-11.388
				c0-10.014,9.6-13.813,21.801-13.813C892.828,307.023,898.027,307.411,902.652,307.599 M938.268,353.838
				c-1.625-8.2-2.014-16.389-2.014-24.602V290.41c0-31.826-23.014-43.246-49.602-43.246c-15.4,0-28.84,2.207-41.641,7.413
				l0.588,24.426c10.014-5.606,21.613-7.806,33.227-7.806c13.025,0,23.627,3.8,23.826,18.007c-4.625-0.794-11-1.382-16.813-1.382
				c-19.238,0-53.854,3.788-53.854,35.614c0,22.614,18.414,32.827,39.053,32.827c14.801,0,24.789-5.801,33.002-18.814h0.387
				c0,5.389,0.613,10.813,0.813,16.389H938.268z"/>
			<path fill="#009999" d="M953.193,353.838h36.014v-44.002c0-22.438,7.613-32.639,22.4-32.639c9.838,0,16.664,6.619,16.664,26.213
				v50.428h36.014v-65.04c0-21.607-11.412-41.634-39.826-41.634c-16.4,0-30.826,6.606-38.027,21.626h-0.4v-19.213h-32.826
				L953.193,353.838L953.193,353.838z"/>
			<path fill="#009999" d="M1146.664,307.599c0,12.213-8.6,24.613-22.227,24.613c-8.375,0-14.801-4.175-14.801-11.388
				c0-10.014,9.602-13.813,21.826-13.813C1136.863,307.023,1142.051,307.411,1146.664,307.599 M1182.291,353.838
				c-1.6-8.2-2-16.389-2-24.602V290.41c0-31.826-23.002-43.246-49.627-43.246c-15.4,0-28.826,2.207-41.627,7.413l0.6,24.426
				c10-5.606,21.625-7.806,33.227-7.806c13,0,23.602,3.8,23.801,18.007c-4.6-0.794-11-1.382-16.801-1.382
				c-19.238,0-53.852,3.788-53.852,35.614c0,22.614,18.412,32.827,39.025,32.827c14.826,0,24.814-5.801,33.027-18.814h0.387
				c0,5.389,0.613,10.813,0.813,16.389H1182.291z"/>
			<path fill="#666666" d="M1155.139,222.207h-11.75l6.051-11.726h0.125L1155.139,222.207z M1175.24,234.276l-18.025-29.964h-15.301
				l-17.775,29.964h12.676l3.662-6.4h17.576l3.486,6.4H1175.24z"/>
			<path fill="#666666" d="M1086.162,227.582c-3.438,0.869-7.588,1.563-11.676,1.563c-9.125,0-15.639-3.557-15.639-9.457
				c0-5.568,5.775-9.693,14.664-9.693c4.273,0,8.15,0.681,12.174,2.1l1.025-6.475c-4.537-0.857-9.137-1.551-13.875-1.551
				c-15.451,0-26.863,5.194-26.863,15.619c0,11.339,14.426,15.37,26.914,15.37c6.375,0,10.324-0.65,13.875-1.2L1086.162,227.582z"/>
			<rect x="981.182" y="204.581" fill="#666666" width="12.451" height="29.964"/>
			<polygon fill="#666666" points="882.053,234.545 893.49,234.545 893.102,214.075 893.227,214.075 909.604,234.545 
				925.078,234.545 925.078,204.581 913.703,204.581 913.904,224.932 913.74,224.932 897.928,204.581 882.053,204.581 			"/>
			<rect x="815.975" y="204.581" fill="#666666" width="12.475" height="29.964"/>
			<polygon fill="#666666" points="734.895,234.545 766.697,234.545 766.697,228.632 747.357,228.632 747.357,204.581 
				734.895,204.581 			"/>
			<path fill="#666666" d="M682.643,227.582c-3.426,0.869-7.6,1.563-11.676,1.563c-9.125,0-15.631-3.557-15.631-9.457
				c0-5.568,5.756-9.693,14.631-9.693c4.275,0,8.15,0.681,12.176,2.1l1.025-6.475c-4.5-0.857-9.125-1.551-13.877-1.551
				c-15.426,0-26.832,5.194-26.832,15.619c0,11.339,14.408,15.37,26.908,15.37c6.35,0,10.301-0.65,13.875-1.2L682.643,227.582z"/>
		</g>
	</g>
	<path fill="#009999" d="M1261.482,331.625c0,10.213-7.338,17.563-16.477,17.563c-9.1,0-16.438-7.35-16.438-17.563
		c0-10.201,7.338-17.551,16.438-17.551C1254.145,314.074,1261.482,321.437,1261.482,331.625 M1266.783,331.625
		c0-12.014-9.789-21.764-21.777-21.764s-21.738,9.775-21.738,21.764c0,12.013,9.75,21.788,21.738,21.788
		S1266.783,343.638,1266.783,331.625"/>
	<path fill="#009999" d="M1245.27,329.762h-4.051v-7.05h4.125c2.326,0,4.975,0.475,4.975,3.375
		C1250.307,329.424,1247.969,329.762,1245.27,329.762 M1248.443,333.087c4.039-0.362,6.477-2.399,6.477-6.65
		c0-5.175-3.201-7.226-9.127-7.226h-9.15V343.9h4.564v-10.613h2.787l6.4,10.613h4.688L1248.443,333.087z"/>
</g>
</svg>
