<?xml version="1.0" encoding="utf-8"?>
<!-- Generator: Adobe Illustrator 26.0.3, SVG Export Plug-In . SVG Version: 6.00 Build 0)  -->
<svg version="1.0" id="Layer_1" xmlns="http://www.w3.org/2000/svg" xmlns:xlink="http://www.w3.org/1999/xlink" x="0px" y="0px"
	 viewBox="0 0 1046 685.1" style="enable-background:new 0 0 1046 685.1;" xml:space="preserve">
<style type="text/css">
	.st0{clip-path:url(#SVGID_00000032623881652921114660000015407078853419616174_);}
	.st1{fill:url(#SVGID_00000114041536832820117880000008200441305825948808_);}
	.st2{clip-path:url(#SVGID_00000096026581051261001590000010066421750555697579_);}
	.st3{fill:url(#SVGID_00000103238755276777206400000017730970357052248997_);}
	.st4{clip-path:url(#SVGID_00000089536660902334694390000013609068379725471925_);}
	.st5{fill:url(#SVGID_00000149354228481116921220000000507645761158042536_);}
	.st6{clip-path:url(#SVGID_00000050644870383968598110000016935892820963977625_);}
	.st7{fill:url(#SVGID_00000094586452183926328110000017765316897212259714_);}
	.st8{clip-path:url(#SVGID_00000176041492982250117100000014749468123475041948_);}
	.st9{fill:url(#SVGID_00000163792740090564958840000004601188684378699912_);}
	.st10{clip-path:url(#SVGID_00000048467290081087156860000002505325707836962967_);}
	.st11{fill:url(#SVGID_00000106106111081386953080000017607860391665173175_);}
	.st12{fill:#50892E;}
	.st13{clip-path:url(#SVGID_00000119817154665190798100000004486494295175512469_);}
</style>
<g>
	<defs>
		<path id="SVGID_1_" d="M181,357.9v0.7c0.1,8.1,3.6,19.1,12.5,28.1c3.1,3.1,6.7,5.7,10.5,7.7c-2.7,14.3-3.3,28.9-1.6,43.4l8.8-0.5
			c-3-13.3-3.7-27-2-40.6c37,13.8,94.8-18,49.8-149.4C254.5,306,182,302,181,357.9"/>
	</defs>
	<clipPath id="SVGID_00000137827406969344724170000001951609870464778151_">
		<use xlink:href="#SVGID_1_"  style="overflow:visible;"/>
	</clipPath>
	<g style="clip-path:url(#SVGID_00000137827406969344724170000001951609870464778151_);">
		
			<linearGradient id="SVGID_00000162340813168634942280000017043527073219838896_" gradientUnits="userSpaceOnUse" x1="210.6385" y1="-125.7436" x2="214.9385" y2="-125.7436" gradientTransform="matrix(17.9729 27.5808 -27.5808 17.9729 -7049.7549 -3266)">
			<stop  offset="0" style="stop-color:#C6CF21"/>
			<stop  offset="3.000000e-02" style="stop-color:#C6CF21"/>
			<stop  offset="0.41" style="stop-color:#8FAE27"/>
			<stop  offset="0.8" style="stop-color:#50892E"/>
			<stop  offset="1" style="stop-color:#50892E"/>
		</linearGradient>
		<polygon style="fill:url(#SVGID_00000162340813168634942280000017043527073219838896_);" points="93.9,304.1 267.4,191.1 
			391.1,381 217.7,494 		"/>
	</g>
</g>
<g>
	<defs>
		<path id="SVGID_00000105413138187410747870000013147424288189419947_" d="M181,357.9v0.7c0.1,8.1,3.6,19.1,12.5,28.1
			c3.1,3.1,6.7,5.7,10.5,7.7c1.8-9.3,4.6-18.3,8.4-27c-6-9.4-12.2-27.8-11.9-40.5l0,0c3.1,12.4,7.9,24.3,14.1,35.5
			c4.5-9.1,9.6-17.8,15.3-26.2c-6-9.1-7.6-24.1-7.5-27c0,0,0.1,0,0.1-0.1c2.4,8.1,5.8,15.8,10.1,22.9c5.2-7.6,10-15.4,14.4-23.5
			c-2.7-5.6-4.5-14.3-4.3-17.1l0,0c1.1,3.9,4.3,8.9,6.8,12c4.3-8.2,7.5-17,9.6-26c1.5-10,1.4-20.1-0.1-30
			C254.5,306,182,302,181,357.9"/>
	</defs>
	<clipPath id="SVGID_00000052823119032434063240000000409028987152053918_">
		<use xlink:href="#SVGID_00000105413138187410747870000013147424288189419947_"  style="overflow:visible;"/>
	</clipPath>
	<g style="clip-path:url(#SVGID_00000052823119032434063240000000409028987152053918_);">
		
			<radialGradient id="SVGID_00000084531178657854608510000006155783614766198424_" cx="214.1268" cy="-144.4191" r="4.3" gradientTransform="matrix(51.74 0 0 51.74 -10919.9912 7692.8184)" gradientUnits="userSpaceOnUse">
			<stop  offset="0" style="stop-color:#C9D647"/>
			<stop  offset="0.19" style="stop-color:#C9D647"/>
			<stop  offset="0.23" style="stop-color:#BECF45"/>
			<stop  offset="0.4" style="stop-color:#8FB13B"/>
			<stop  offset="0.56" style="stop-color:#6D9B34"/>
			<stop  offset="0.69" style="stop-color:#588E30"/>
			<stop  offset="0.77" style="stop-color:#50892E"/>
			<stop  offset="1" style="stop-color:#50892E"/>
		</radialGradient>
		
			<rect x="181" y="247.3" style="fill:url(#SVGID_00000084531178657854608510000006155783614766198424_);" width="79.7" height="147"/>
	</g>
</g>
<g>
	<defs>
		<path id="SVGID_00000145020382355906769940000007190029761569871013_" d="M237.5,357.9c-0.1,8.2,3.3,19.6,12.5,28.8
			c31.5,31.5,117.7,13.1,65.6-139.4C311,306,238.5,302,237.5,357.9"/>
	</defs>
	<clipPath id="SVGID_00000109004131108780773520000008613701310079102395_">
		<use xlink:href="#SVGID_00000145020382355906769940000007190029761569871013_"  style="overflow:visible;"/>
	</clipPath>
	<g style="clip-path:url(#SVGID_00000109004131108780773520000008613701310079102395_);">
		
			<radialGradient id="SVGID_00000078029119310858793990000002616352251063435688_" cx="214.9668" cy="-144.4191" r="4.3" gradientTransform="matrix(51.74 0 0 51.74 -10906.8711 7693.166)" gradientUnits="userSpaceOnUse">
			<stop  offset="0" style="stop-color:#DBE6F5"/>
			<stop  offset="0.12" style="stop-color:#D7E4F4"/>
			<stop  offset="0.24" style="stop-color:#CBDEF1"/>
			<stop  offset="0.36" style="stop-color:#B7D4EC"/>
			<stop  offset="0.48" style="stop-color:#9AC6E6"/>
			<stop  offset="0.6" style="stop-color:#75B3DD"/>
			<stop  offset="0.72" style="stop-color:#499DD2"/>
			<stop  offset="0.84" style="stop-color:#1483C6"/>
			<stop  offset="0.89" style="stop-color:#0079C1"/>
			<stop  offset="1" style="stop-color:#0079C1"/>
		</radialGradient>
		
			<rect x="237.4" y="247.3" style="fill:url(#SVGID_00000078029119310858793990000002616352251063435688_);" width="130.4" height="170.9"/>
	</g>
</g>
<g>
	<defs>
		<path id="SVGID_00000129191683804541220330000005157604789303046042_" d="M237.5,357.9c-0.1,8.2,3.3,19.6,12.5,28.8
			c1.1,1.1,2.3,2.1,3.5,3.1c15.9-13,26.5-39.6,20-84.9C255.3,317.8,237.9,330.8,237.5,357.9"/>
	</defs>
	<clipPath id="SVGID_00000003067887198364584580000008135110274810694810_">
		<use xlink:href="#SVGID_00000129191683804541220330000005157604789303046042_"  style="overflow:visible;"/>
	</clipPath>
	<g style="clip-path:url(#SVGID_00000003067887198364584580000008135110274810694810_);">
		
			<radialGradient id="SVGID_00000128445832775548644830000002250176708672593546_" cx="214.9668" cy="-144.4191" r="4.3" gradientTransform="matrix(51.74 0 0 51.74 -10906.8516 7693.377)" gradientUnits="userSpaceOnUse">
			<stop  offset="0" style="stop-color:#FFFFFF"/>
			<stop  offset="2.000000e-02" style="stop-color:#F4F8FC"/>
			<stop  offset="7.000000e-02" style="stop-color:#DAE6F5"/>
			<stop  offset="0.12" style="stop-color:#C6D9EF"/>
			<stop  offset="0.18" style="stop-color:#B8CFEB"/>
			<stop  offset="0.26" style="stop-color:#AFCAE9"/>
			<stop  offset="0.38" style="stop-color:#ADC8E8"/>
			<stop  offset="0.44" style="stop-color:#8FBBE1"/>
			<stop  offset="0.56" style="stop-color:#529FD4"/>
			<stop  offset="0.67" style="stop-color:#268AC9"/>
			<stop  offset="0.75" style="stop-color:#0A7EC3"/>
			<stop  offset="0.8" style="stop-color:#0079C1"/>
			<stop  offset="1" style="stop-color:#0079C1"/>
		</radialGradient>
		
			<rect x="237.4" y="304.9" style="fill:url(#SVGID_00000128445832775548644830000002250176708672593546_);" width="42.6" height="84.9"/>
	</g>
</g>
<g>
	<defs>
		<path id="SVGID_00000160186074848514122790000008768422403884885407_" d="M294.7,357.9c-0.1,8.2,3.3,19.6,12.5,28.8
			c31.5,31.5,117.7,13.1,65.6-139.4C368.1,306,295.7,302,294.7,357.9"/>
	</defs>
	<clipPath id="SVGID_00000100359578028119518760000016796453324537826695_">
		<use xlink:href="#SVGID_00000160186074848514122790000008768422403884885407_"  style="overflow:visible;"/>
	</clipPath>
	<g style="clip-path:url(#SVGID_00000100359578028119518760000016796453324537826695_);">
		
			<radialGradient id="SVGID_00000147935165595837663280000001391413548483567267_" cx="215.8068" cy="-144.4191" r="4.3" gradientTransform="matrix(51.74 0 0 51.74 -10893.5908 7692.8066)" gradientUnits="userSpaceOnUse">
			<stop  offset="0" style="stop-color:#FFF200"/>
			<stop  offset="0.14" style="stop-color:#FFF200"/>
			<stop  offset="0.18" style="stop-color:#FFE802"/>
			<stop  offset="0.27" style="stop-color:#FFD705"/>
			<stop  offset="0.38" style="stop-color:#FFCC06"/>
			<stop  offset="0.5" style="stop-color:#FFC907"/>
			<stop  offset="0.58" style="stop-color:#FCB70D"/>
			<stop  offset="0.73" style="stop-color:#F89717"/>
			<stop  offset="0.86" style="stop-color:#F5831E"/>
			<stop  offset="0.95" style="stop-color:#F47C20"/>
			<stop  offset="1" style="stop-color:#F47C20"/>
		</radialGradient>
		
			<rect x="294.5" y="247.3" style="fill:url(#SVGID_00000147935165595837663280000001391413548483567267_);" width="130.4" height="170.9"/>
	</g>
</g>
<g>
	<defs>
		<path id="SVGID_00000101794505943037100100000006716154638353513398_" d="M294.7,357.9c-0.1,8.2,3.3,19.6,12.5,28.8
			c1,1,2.1,1.9,3.1,2.8c15.7-13,26.1-39.5,19.8-84.3C312.1,318.1,295.1,331.1,294.7,357.9"/>
	</defs>
	<clipPath id="SVGID_00000108279219724291538730000015462863489263082906_">
		<use xlink:href="#SVGID_00000101794505943037100100000006716154638353513398_"  style="overflow:visible;"/>
	</clipPath>
	<g style="clip-path:url(#SVGID_00000108279219724291538730000015462863489263082906_);">
		
			<radialGradient id="SVGID_00000133506748341465537320000010906919667762833307_" cx="215.8068" cy="-144.4191" r="4.3" gradientTransform="matrix(51.74 0 0 51.74 -10893.6016 7694.248)" gradientUnits="userSpaceOnUse">
			<stop  offset="0" style="stop-color:#FFF200"/>
			<stop  offset="3.000000e-02" style="stop-color:#FFE903"/>
			<stop  offset="0.1" style="stop-color:#FED409"/>
			<stop  offset="0.19" style="stop-color:#FDC60E"/>
			<stop  offset="0.29" style="stop-color:#FDBD11"/>
			<stop  offset="0.45" style="stop-color:#FDBA12"/>
			<stop  offset="0.46" style="stop-color:#FDB713"/>
			<stop  offset="0.55" style="stop-color:#F99D18"/>
			<stop  offset="0.64" style="stop-color:#F68B1D"/>
			<stop  offset="0.74" style="stop-color:#F5801F"/>
			<stop  offset="0.85" style="stop-color:#F47C20"/>
			<stop  offset="1" style="stop-color:#F47C20"/>
		</radialGradient>
		
			<rect x="294.5" y="305.3" style="fill:url(#SVGID_00000133506748341465537320000010906919667762833307_);" width="41.9" height="84.3"/>
	</g>
</g>
<path class="st12" d="M747.1,389.4c10.8,0,21-3.6,28.1-9.9l0.1-35.2h-22c-6,0-6.7,3.1-6.7,5.2c0,2.1,0.7,5.2,6.8,5.2h6.9l0.1,20.6
	l-0.6,0.3c-4,1.8-8.3,2.6-12.7,2.5c-17.3,0-27.2-10.8-27.2-29.7s9.9-29.7,27.3-29.7c6.4,0.1,12.9,0.9,19.1,2.5v-11.3
	c-6.3-1.5-12.7-2.3-19.2-2.3c-29.4,0-42.6,20.5-42.6,40.9C704.4,368.8,717.6,389.4,747.1,389.4"/>
<g>
	<defs>
		<rect id="SVGID_00000018207776204727245820000012802062047403393698_" x="181" y="247.3" width="771" height="190.4"/>
	</defs>
	<clipPath id="SVGID_00000155132083729866744930000003081123785382323900_">
		<use xlink:href="#SVGID_00000018207776204727245820000012802062047403393698_"  style="overflow:visible;"/>
	</clipPath>
	<g style="clip-path:url(#SVGID_00000155132083729866744930000003081123785382323900_);">
		<path class="st12" d="M592.3,313.3H576l-29.1,72h15.7l5.7-15.1h33.9l4.2,10.1c1,2.3,2.1,4.9,7.1,4.9h10.8L592.3,313.3
			 M572.4,359.4l11.9-31.6l13.3,31.6L572.4,359.4z"/>
		<path class="st12" d="M913,313.3h-29.2v72h27c26.5,0,41.2-12.8,41.2-35.9C952,327.1,937,313.2,913,313.3 M898.7,323h11.9
			c16.6,0,26.1,9.6,26.1,26.2c0,16.4-9.7,26.2-25.9,26.2h-12.1L898.7,323z"/>
	</g>
</g>
<rect x="854.2" y="313.3" class="st12" width="15.1" height="72"/>
<path class="st12" d="M824,352.1c5.5-1.7,15-6.4,15-19c0-9.9-7.8-19.8-22.8-19.8h-32v72H799v-62.2h11.7c11.2,0,12.9,6.7,12.9,10.7
	c0,6.7-4.8,10.8-12.5,10.8c-5,0-7.8,2-7.8,5.2c0,1.8,1.2,4.2,6.7,5.1c6.8,1.1,9.5,7.7,13,16.1c0,0,3,7.1,4,9.4c1,2.3,1.9,5,7.1,5
	h11.5l-5.1-11C835.3,363,831.3,356.3,824,352.1"/>
<path class="st12" d="M551.1,313.3c-4.2,0-5.7,1.9-6.6,3.9L526,359.1l-21.1-45.8H489l32.5,68.9c1,1.7,2.5,3.2,6.2,3.2h1.8l32.4-72
	H551.1"/>
<path class="st12" d="M682.9,313.3v49.2l-39.5-49.2h-15.6v72h14.8v-52.7c0,0,31.6,41.2,39.3,50.7c1,1.1,2.5,1.9,5.1,2h10.7v-72
	L682.9,313.3"/>
<path class="st12" d="M469.3,300.6h-13.2l-34.2,84.7h16l6.7-17.7h39.9l4.9,11.9c1.1,2.7,2.4,5.8,8.3,5.8h9.9l-37.6-84.7
	 M449.4,354.9l14-37.2l15.6,37.2H449.4z"/>
</svg>
