<?xml version="1.0" encoding="UTF-8"?>
<svg width="101px" height="46px" viewBox="0 0 101 46" version="1.1" xmlns="http://www.w3.org/2000/svg" xmlns:xlink="http://www.w3.org/1999/xlink">
    <!-- Generator: sketchtool 58 (101010) - https://sketch.com -->
    <title>707CD6F4-93AD-4F52-A25E-04DB69337D55</title>
    <desc>Created with sketchtool.</desc>
    <g id="Cartola-de-pagos" stroke="none" stroke-width="1" fill="none" fill-rule="evenodd">
        <g id="Comprobante" transform="translate(-38.000000, -54.000000)" fill-rule="nonzero">
            <g id="0.-Brand-/-0.0.-Logo-Bci-/-Negro-/-120-x-57" transform="translate(38.000000, 54.000000)">
                <g id="iso">
                    <path d="M0.0510514866,41.281101 C0.127628716,43.535359 1.81232777,45.4566017 4.05859318,45.8152337 C4.3649021,45.8664668 4.67121102,45.8920834 4.97751994,45.8664668 C6.25380711,45.8152337 7.4279913,45.2772857 8.27034083,44.3550892 C9.1382161,43.4328928 9.57215373,42.2032975 9.52110225,40.9480856 C9.52110225,37.5154653 11.4865845,35.1843575 14.1667875,32.5458509 C16.9746193,30.4709088 20.982161,27.9348685 26.6233503,24.7840305 C33.6429297,21.0440114 38.2120377,16.612345 39.2075417,13.0004088 L39.2330674,12.8979425 C39.3606962,12.4368443 39.4117476,11.975746 39.3862219,11.5146478 C39.3096447,9.2603897 37.6249456,7.33914702 35.3786802,6.98051506 C35.0723713,6.92928192 34.7660624,6.90366535 34.4597534,6.92928192 C33.1834663,6.98051506 32.0092821,7.51846301 31.1669326,8.44065949 C30.2990573,9.36285597 29.8651197,10.5924513 29.9161711,11.8476632 C29.9161711,15.4595994 27.746483,17.8675569 24.8110225,20.6597629 C18.5572154,25.5525276 12.7883974,28.0117182 12.7883974,28.0117182 C5.76881798,31.7517373 1.19970993,36.1834037 0.204205946,39.79534 L0.178680203,39.8978062 C0.0765772299,40.3845211 0.0255257433,40.8456193 0.0510514866,41.281101 Z" id="Shape" fill="#EF3942"></path>
                    <path d="M28.3335751,26.833356 C28.3335751,26.833356 33.4387237,28.1910342 31.8306019,35.3892901 L31.8306019,35.3892901 C31.7540247,35.7735386 31.7029732,36.1577872 31.7540247,36.5676523 C31.9327049,38.6938275 33.7960841,40.2564382 35.9147208,40.0771222 C38.0333575,39.8978062 39.5904278,38.0277967 39.4117476,35.9016215 C39.0543872,30.9063905 29.6609137,24.7840305 28.3846265,24.9377299 C28.3846265,24.9377299 27.64438,24.9633465 27.64438,25.9111596 C27.64438,26.6796566 28.3335751,26.833356 28.3335751,26.833356 Z" id="Shape" fill="#0C9647"></path>
                    <path d="M27.4826061,28.8758752 C27.4826061,28.8758752 30.8264784,29.7724551 29.779923,34.4602872 L29.779923,34.4602872 C29.779923,34.4602872 28.682316,38.8919536 21.6116851,40.0446992 C13.6221275,41.3767608 13.7497562,38.4308554 13.7497562,38.4308554 C13.673179,36.970711 13.1371383,35.2031677 21.0756445,30.3872527 C21.0756445,30.3872527 25.0831862,27.9280621 27.4826061,28.8758752 Z" id="Shape" fill="#FDD700"></path>
                    <path d="M7.47904278,7.41599673 C7.93850616,13.820139 17.0767223,21.4794931 22.5392313,24.4510151 C24.0197244,25.2707453 25.857578,25.0914294 26.3936186,24.8864968 C28.8951414,23.7337512 26.2149384,22.7603216 26.2149384,22.7603216 C26.2149384,22.7603216 17.6127629,20.4548304 20.2929659,8.31257665 L20.2929659,8.31257665 C20.4461204,7.67216242 20.4971719,7.00613163 20.4461204,6.31448426 C20.1398115,2.7281646 17.000145,0.0640414225 13.426541,0.371440251 C9.82741117,0.678839079 7.17273387,3.82967707 7.47904278,7.41599673 Z" id="Shape" fill="#2C70B8"></path>
                </g>
                <path d="M94.6490765,42.5159236 L100.719437,42.5159236 L100.719437,16.3757962 L94.6490765,16.3757962 L94.6490765,42.5159236 Z M97.6842568,13.6242038 C99.5206684,13.6242038 101,12.1464968 101,10.3121019 C101,8.47770701 99.5206684,7 97.6842568,7 C95.8478452,7 94.3685136,8.47770701 94.3685136,10.3121019 C94.3430079,12.1464968 95.8478452,13.6242038 97.6842568,13.6242038 Z M67.0008795,32.3248408 C67.0008795,29.3184713 65.9296394,26.388535 63.4300792,24.6815287 C65.1389622,22.9235669 65.9551451,20.6815287 65.9551451,18.388535 C65.9551451,13.1146497 63.1495163,8.75796178 54.8091469,8.75796178 L43,8.75796178 L43,42.5159236 L55.0386983,42.5159236 C63.9401935,42.5159236 67.0008795,38.0063694 67.0008795,32.3248408 Z M49.0958663,14.7197452 L54.9621812,14.7197452 C58.7370273,14.7197452 59.3746702,16.5286624 59.3746702,18.3630573 C59.3746702,20.1719745 58.6094987,22.0573248 55.3192612,22.0573248 L49.0958663,22.0573248 L49.0958663,14.7197452 L49.0958663,14.7197452 Z M49.0958663,28.0700637 L55.3192612,28.0700637 C59.0686016,28.0700637 60.471416,29.4203822 60.471416,32.3503185 C60.471416,34.4140127 59.5787159,36.5286624 55.2427441,36.5286624 L49.121372,36.5286624 L49.121372,28.0700637 L49.0958663,28.0700637 Z M82.2277924,37.089172 C78.3509235,37.089172 75.2137203,33.7770701 75.2137203,29.7006369 L75.2137203,29.6242038 C75.2137203,25.522293 78.2489006,22.3121019 82.1512753,22.3121019 C84.1917326,22.3121019 85.8240985,23.0764331 87.5584872,24.8343949 L91.7159191,20.4522293 C89.6754617,18.4649682 86.76781,16.3757962 82.176781,16.3757962 C74.9586631,16.3757962 69.0923483,22.3375796 69.0923483,29.6496815 L69.0923483,29.7261146 C69.0923483,37.0382166 74.9331574,43 82.1257696,43 C85.7475814,43 88.8337731,41.7006369 91.4863676,39.0764331 L87.2269129,34.9235669 C85.6455585,36.4012739 84.0897098,37.089172 82.2277924,37.089172 Z" id="Shape" fill="#000000"></path>
            </g>
        </g>
    </g>
</svg>