<svg width="138" height="37" viewBox="0 0 138 37" fill="none" xmlns="http://www.w3.org/2000/svg">
<path d="M9.74192 4.95031C7.558 4.99245 3.52294 6.06708 1.6718 13.6949C0.860627 17.0241 0.548638 20.4798 1.25581 24.6097C1.87979 28.4026 3.00295 31.6897 3.77253 33.5018C4.04292 34.1339 4.43811 34.7661 4.75009 35.1664C5.64446 36.3253 7.14201 36.241 7.76599 35.925C8.45237 35.5878 9.24274 34.7661 8.95155 32.8696C8.80596 31.9636 8.41077 30.6361 8.20278 29.8986C7.5164 27.6229 6.60123 24.8837 6.51803 22.9451C6.41404 20.3323 7.4332 19.9951 8.09878 19.8476C9.24274 19.5948 10.1787 20.8591 11.0939 22.4394C12.1754 24.3358 14.0266 27.6651 15.5241 30.2147C16.8761 32.5114 19.3928 34.9978 23.4279 34.8293C27.5461 34.6607 30.562 33.0593 32.122 28.0654C33.2867 24.3147 34.0771 21.5333 35.3666 18.6677C36.8434 15.3806 38.7985 13.6106 40.4625 14.1584C42.0016 14.6641 42.376 16.1813 42.3968 18.4148C42.4176 20.3955 42.1888 22.5658 42.0016 24.1672C41.9392 24.7572 41.8144 25.9162 41.8768 26.5694C41.96 27.8547 42.5216 29.119 43.936 29.3297C45.4543 29.5404 46.6607 28.3183 47.139 26.8433C47.3262 26.2533 47.4926 25.3683 47.5758 24.7362C48.0126 21.5333 48.1374 19.3841 47.9294 16.118C47.7006 12.3042 46.9519 8.80634 45.6623 5.79316C44.4559 2.88533 42.48 1.03106 39.9425 0.883565C37.1346 0.693925 33.9107 2.59033 32.2052 6.25672C30.6452 9.62811 29.3973 13.1049 28.6485 14.8748C27.8789 16.6659 26.7557 17.7827 25.0086 17.9723C22.8871 18.2041 21.0567 16.6448 19.7256 14.4113C18.5608 12.4517 16.2521 8.7642 15.0041 7.52099C13.8394 6.36208 12.5082 4.90817 9.74192 4.95031Z" fill="#019DF4"/>
<path d="M56.4779 11.2506H64.548L64.3816 12.7045H58.3082V17.5509H63.2377V19.047H58.3082V24.0619H64.6728V25.5158H56.4779V11.2506V11.2506Z" fill="#019DF4"/>
<path d="M66.9399 15.2962H68.3543L68.4375 16.0548C69.4982 15.3805 70.5798 15.0012 71.703 15.0012C72.9717 15.0012 73.8661 15.3805 74.4485 16.1601C75.6964 15.3805 76.9444 15.0012 78.0676 15.0012C79.1699 15.0012 80.0227 15.2962 80.6051 15.9073C81.1666 16.4762 81.4578 17.298 81.4578 18.5833V25.5368H79.7523V18.794C79.7523 17.909 79.6067 17.4244 79.2531 17.0662C78.8995 16.708 78.3587 16.5394 77.6724 16.5394C76.8404 16.5394 75.842 16.7923 74.9477 17.2348C75.0309 17.614 75.0933 18.0776 75.0933 18.5833V25.5368H73.3877V18.794C73.3877 17.909 73.2421 17.4244 72.8885 17.0662C72.5349 16.708 71.9942 16.5394 71.3078 16.5394C70.4342 16.5394 69.4982 16.8133 68.6663 17.2137V25.5368H66.9607V15.2962H66.9399Z" fill="#019DF4"/>
<path d="M84.0994 15.2962H85.5137L85.5969 16.0548C86.6577 15.3384 87.8224 15.0012 88.7584 15.0012C91.3791 15.0012 92.6271 17.1083 92.6271 20.3744C92.6271 24.2093 91.1087 25.8318 88.696 25.8318C87.6352 25.8318 86.5537 25.5368 85.8049 25.0522V30.2357H84.0994V15.2962V15.2962ZM90.8383 20.3533C90.8383 17.7405 90.0688 16.4973 88.384 16.4973C87.5937 16.4973 86.5953 16.7712 85.8049 17.1926V23.7668C86.4081 24.1251 87.3857 24.399 88.2592 24.399C90.0896 24.3779 90.8383 23.2822 90.8383 20.3533Z" fill="#019DF4"/>
<path d="M94.7695 15.2962H96.1838L96.2878 16.1812C97.2654 15.3594 98.2638 15.0012 99.1581 15.0012C99.3453 15.0012 99.5949 15.0223 99.8237 15.0644V16.6026C99.5949 16.5816 99.2205 16.5605 98.9293 16.5605C98.035 16.5605 97.203 16.7923 96.475 17.2558V25.5158H94.7695V15.2962Z" fill="#019DF4"/>
<path d="M101.8 24.5886C100.884 23.6615 100.489 22.2708 100.489 20.4376C100.489 16.7923 102.278 15.0012 104.857 15.0012C107.686 15.0012 109.038 17.0241 109.038 20.3954V20.7958C109.038 20.9644 108.954 21.0276 108.788 21.0276H102.278C102.278 22.1654 102.569 23.0715 103.172 23.6404C103.713 24.1461 104.462 24.4201 105.751 24.4201C106.479 24.4201 107.457 24.3147 108.247 24.1461L108.414 25.4315C107.54 25.6843 106.355 25.8318 105.419 25.8318C103.838 25.8318 102.632 25.4315 101.8 24.5886ZM107.353 19.7422C107.291 17.7826 106.542 16.3919 104.857 16.3919C103.152 16.3919 102.299 17.6562 102.278 19.7422H107.353Z" fill="#019DF4"/>
<path d="M110.93 25.3894L111.014 24.0619C111.846 24.2937 112.948 24.4412 113.842 24.4412C115.485 24.4412 116.38 23.8722 116.38 22.8398C116.38 20.543 110.743 21.723 110.743 17.9723C110.743 15.9916 112.262 15.0223 114.404 15.0223C115.423 15.0223 116.546 15.212 117.357 15.4648L117.212 16.7291C116.297 16.5184 115.381 16.392 114.549 16.392C113.114 16.392 112.345 16.8766 112.345 17.8248C112.345 20.1216 117.981 19.0259 117.981 22.6923C117.981 24.8626 116.338 25.8319 113.905 25.8319C112.927 25.8319 111.7 25.6422 110.93 25.3894Z" fill="#019DF4"/>
<path d="M120.456 24.8415C119.957 24.3147 119.645 23.5983 119.645 22.629C119.645 21.6597 119.978 20.9222 120.519 20.4165C121.288 19.7001 122.474 19.4262 123.951 19.4262H126.051V18.773C126.051 17.9301 125.906 17.4244 125.531 17.0451C125.095 16.6237 124.429 16.4341 123.431 16.4341C122.661 16.4341 121.704 16.5183 120.706 16.6869L120.644 15.3594C121.6 15.1276 122.744 15.0012 123.722 15.0012C125.219 15.0012 126.239 15.3384 126.883 15.9494C127.528 16.5816 127.778 17.3823 127.778 18.7308V25.5368H126.405L126.301 24.8415C125.407 25.4315 124.346 25.8318 123.119 25.8318C122.016 25.8318 121.08 25.4947 120.456 24.8415ZM126.051 23.7668V20.7115H124.2C123.14 20.7115 122.432 20.859 121.954 21.2383C121.6 21.5333 121.392 21.9758 121.392 22.5869C121.392 23.809 122.162 24.4201 123.472 24.4201C124.304 24.4201 125.303 24.1251 126.051 23.7668Z" fill="#019DF4"/>
<path d="M130.087 25.3894L130.17 24.0619C131.002 24.2937 132.104 24.4412 132.998 24.4412C134.642 24.4412 135.536 23.8722 135.536 22.8398C135.536 20.543 129.899 21.723 129.899 17.9723C129.899 15.9916 131.418 15.0223 133.56 15.0223C134.579 15.0223 135.702 15.212 136.514 15.4648L136.368 16.7291C135.453 16.5184 134.538 16.392 133.706 16.392C132.27 16.392 131.501 16.8766 131.501 17.8248C131.501 20.1216 137.137 19.0259 137.137 22.6923C137.137 24.8626 135.494 25.8319 133.061 25.8319C132.083 25.8319 130.856 25.6422 130.087 25.3894Z" fill="#019DF4"/>
<path d="M9.74192 4.95031C7.558 4.99245 3.52294 6.06708 1.6718 13.6949C0.860627 17.0241 0.548638 20.4798 1.25581 24.6097C1.87979 28.4026 3.00295 31.6897 3.77253 33.5018C4.04292 34.1339 4.43811 34.7661 4.75009 35.1664C5.64446 36.3253 7.14201 36.241 7.76599 35.925C8.45237 35.5878 9.24274 34.7661 8.95155 32.8696C8.80596 31.9636 8.41077 30.6361 8.20278 29.8986C7.5164 27.6229 6.60123 24.8837 6.51803 22.9451C6.41404 20.3323 7.4332 19.9951 8.09878 19.8476C9.24274 19.5948 10.1787 20.8591 11.0939 22.4394C12.1754 24.3358 14.0266 27.6651 15.5241 30.2147C16.8761 32.5114 19.3928 34.9978 23.4279 34.8293C27.5461 34.6607 30.562 33.0593 32.122 28.0654C33.2867 24.3147 34.0771 21.5333 35.3666 18.6677C36.8434 15.3806 38.7985 13.6106 40.4625 14.1584C42.0016 14.6641 42.376 16.1813 42.3968 18.4148C42.4176 20.3955 42.1888 22.5658 42.0016 24.1672C41.9392 24.7572 41.8144 25.9162 41.8768 26.5694C41.96 27.8547 42.5216 29.119 43.936 29.3297C45.4543 29.5404 46.6607 28.3183 47.139 26.8433C47.3262 26.2533 47.4926 25.3683 47.5758 24.7362C48.0126 21.5333 48.1374 19.3841 47.9294 16.118C47.7006 12.3042 46.9519 8.80634 45.6623 5.79316C44.4559 2.88533 42.48 1.03106 39.9425 0.883565C37.1346 0.693925 33.9107 2.59033 32.2052 6.25672C30.6452 9.62811 29.3973 13.1049 28.6485 14.8748C27.8789 16.6659 26.7557 17.7827 25.0086 17.9723C22.8871 18.2041 21.0567 16.6448 19.7256 14.4113C18.5608 12.4517 16.2521 8.7642 15.0041 7.52099C13.8394 6.36208 12.5082 4.90817 9.74192 4.95031Z" fill="#019DF4"/>
<path d="M56.4779 11.2506H64.548L64.3816 12.7045H58.3082V17.5509H63.2377V19.047H58.3082V24.0619H64.6728V25.5158H56.4779V11.2506V11.2506Z" fill="#019DF4"/>
<path d="M66.9399 15.2962H68.3543L68.4375 16.0548C69.4982 15.3805 70.5798 15.0012 71.703 15.0012C72.9717 15.0012 73.8661 15.3805 74.4485 16.1601C75.6964 15.3805 76.9444 15.0012 78.0676 15.0012C79.1699 15.0012 80.0227 15.2962 80.6051 15.9073C81.1666 16.4762 81.4578 17.298 81.4578 18.5833V25.5368H79.7523V18.794C79.7523 17.909 79.6067 17.4244 79.2531 17.0662C78.8995 16.708 78.3587 16.5394 77.6724 16.5394C76.8404 16.5394 75.842 16.7923 74.9477 17.2348C75.0309 17.614 75.0933 18.0776 75.0933 18.5833V25.5368H73.3877V18.794C73.3877 17.909 73.2421 17.4244 72.8885 17.0662C72.5349 16.708 71.9942 16.5394 71.3078 16.5394C70.4342 16.5394 69.4982 16.8133 68.6663 17.2137V25.5368H66.9607V15.2962H66.9399Z" fill="#019DF4"/>
<path d="M84.0994 15.2962H85.5137L85.5969 16.0548C86.6577 15.3384 87.8224 15.0012 88.7584 15.0012C91.3791 15.0012 92.6271 17.1083 92.6271 20.3744C92.6271 24.2093 91.1087 25.8318 88.696 25.8318C87.6352 25.8318 86.5537 25.5368 85.8049 25.0522V30.2357H84.0994V15.2962V15.2962ZM90.8383 20.3533C90.8383 17.7405 90.0688 16.4973 88.384 16.4973C87.5937 16.4973 86.5953 16.7712 85.8049 17.1926V23.7668C86.4081 24.1251 87.3857 24.399 88.2592 24.399C90.0896 24.3779 90.8383 23.2822 90.8383 20.3533Z" fill="#019DF4"/>
<path d="M94.7695 15.2962H96.1838L96.2878 16.1812C97.2654 15.3594 98.2638 15.0012 99.1581 15.0012C99.3453 15.0012 99.5949 15.0223 99.8237 15.0644V16.6026C99.5949 16.5816 99.2205 16.5605 98.9293 16.5605C98.035 16.5605 97.203 16.7923 96.475 17.2558V25.5158H94.7695V15.2962Z" fill="#019DF4"/>
<path d="M101.8 24.5886C100.884 23.6615 100.489 22.2708 100.489 20.4376C100.489 16.7923 102.278 15.0012 104.857 15.0012C107.686 15.0012 109.038 17.0241 109.038 20.3954V20.7958C109.038 20.9644 108.954 21.0276 108.788 21.0276H102.278C102.278 22.1654 102.569 23.0715 103.172 23.6404C103.713 24.1461 104.462 24.4201 105.751 24.4201C106.479 24.4201 107.457 24.3147 108.247 24.1461L108.414 25.4315C107.54 25.6843 106.355 25.8318 105.419 25.8318C103.838 25.8318 102.632 25.4315 101.8 24.5886ZM107.353 19.7422C107.291 17.7826 106.542 16.3919 104.857 16.3919C103.152 16.3919 102.299 17.6562 102.278 19.7422H107.353Z" fill="#019DF4"/>
<path d="M110.93 25.3894L111.014 24.0619C111.846 24.2937 112.948 24.4412 113.842 24.4412C115.485 24.4412 116.38 23.8722 116.38 22.8398C116.38 20.543 110.743 21.723 110.743 17.9723C110.743 15.9916 112.262 15.0223 114.404 15.0223C115.423 15.0223 116.546 15.212 117.357 15.4648L117.212 16.7291C116.297 16.5184 115.381 16.392 114.549 16.392C113.114 16.392 112.345 16.8766 112.345 17.8248C112.345 20.1216 117.981 19.0259 117.981 22.6923C117.981 24.8626 116.338 25.8319 113.905 25.8319C112.927 25.8319 111.7 25.6422 110.93 25.3894Z" fill="#019DF4"/>
<path d="M120.456 24.8415C119.957 24.3147 119.645 23.5983 119.645 22.629C119.645 21.6597 119.978 20.9222 120.519 20.4165C121.288 19.7001 122.474 19.4262 123.951 19.4262H126.051V18.773C126.051 17.9301 125.906 17.4244 125.531 17.0451C125.095 16.6237 124.429 16.4341 123.431 16.4341C122.661 16.4341 121.704 16.5183 120.706 16.6869L120.644 15.3594C121.6 15.1276 122.744 15.0012 123.722 15.0012C125.219 15.0012 126.239 15.3384 126.883 15.9494C127.528 16.5816 127.778 17.3823 127.778 18.7308V25.5368H126.405L126.301 24.8415C125.407 25.4315 124.346 25.8318 123.119 25.8318C122.016 25.8318 121.08 25.4947 120.456 24.8415ZM126.051 23.7668V20.7115H124.2C123.14 20.7115 122.432 20.859 121.954 21.2383C121.6 21.5333 121.392 21.9758 121.392 22.5869C121.392 23.809 122.162 24.4201 123.472 24.4201C124.304 24.4201 125.303 24.1251 126.051 23.7668Z" fill="#019DF4"/>
<path d="M130.087 25.3894L130.17 24.0619C131.002 24.2937 132.104 24.4412 132.998 24.4412C134.642 24.4412 135.536 23.8722 135.536 22.8398C135.536 20.543 129.899 21.723 129.899 17.9723C129.899 15.9916 131.418 15.0223 133.56 15.0223C134.579 15.0223 135.702 15.212 136.514 15.4648L136.368 16.7291C135.453 16.5184 134.538 16.392 133.706 16.392C132.27 16.392 131.501 16.8766 131.501 17.8248C131.501 20.1216 137.137 19.0259 137.137 22.6923C137.137 24.8626 135.494 25.8319 133.061 25.8319C132.083 25.8319 130.856 25.6422 130.087 25.3894Z" fill="#019DF4"/>
</svg>
