<svg width="229" height="63" viewBox="0 0 229 63" fill="none" xmlns="http://www.w3.org/2000/svg">
<path d="M193.159 15.7763C193.159 16.8799 193.025 18.2174 192.825 18.9197C191.956 18.8191 191.087 18.7859 190.052 18.7859C189.15 18.7859 188.248 18.8528 187.346 18.9863V33.2985H183.671V16.5788C185.241 16.0437 187.881 15.6426 189.952 15.6426C191.087 15.6426 192.357 15.676 193.159 15.7763ZM168.504 23.0661H176.788C176.788 20.3239 175.319 18.7189 172.78 18.7189C170.174 18.7189 168.804 20.2236 168.504 23.0661ZM180.296 26.1426H168.57C169.038 29.1187 170.775 30.5563 174.049 30.5563C176.054 30.5563 178.091 30.1215 179.929 29.2858C179.795 30.2554 179.595 31.5261 179.361 32.6295C177.69 33.3988 175.92 33.6997 173.949 33.6997C167.802 33.6997 164.829 30.2889 164.829 24.5708C164.829 19.5882 167.134 15.6426 172.98 15.6426C178.225 15.6426 180.497 19.0866 180.497 23.3003C180.497 24.3368 180.43 25.1728 180.296 26.1426ZM158.18 29.4195V19.1202C157.211 18.9197 156.209 18.7859 155.24 18.7859C151.599 18.7859 149.862 21.0597 149.862 24.8719C149.862 28.2827 151.231 30.6902 154.505 30.6902C155.975 30.6902 157.178 30.1886 158.18 29.4195ZM161.821 9.89088V33.2985H158.447L158.247 31.1582C157.311 32.73 155.875 33.6997 153.469 33.6997C149.06 33.6997 146.12 30.4894 146.12 24.8719C146.12 18.9863 149.26 15.6426 155.44 15.6426C156.409 15.6426 157.311 15.7428 158.18 15.91V10.3925C159.316 9.99117 160.619 9.89088 161.821 9.89088ZM143.179 22.0628V33.2985H139.504V22.6982C139.504 20.0567 138.636 18.7859 134.961 18.7859C134.092 18.7859 133.057 18.886 132.054 19.0534V33.2985H128.38V16.5788C130.718 16.0103 133.291 15.6426 135.061 15.6426C141.208 15.6426 143.179 18.0166 143.179 22.0628ZM120.695 29.4864V18.9863C119.927 18.8528 119.092 18.7859 118.056 18.7859C114.248 18.7859 112.477 21.1268 112.477 24.8719C112.477 28.2827 113.847 30.6902 117.121 30.6902C118.557 30.6902 119.727 30.2222 120.695 29.4864ZM124.37 16.5788V33.2985H120.996L120.795 31.2922C119.86 32.7634 118.424 33.6997 116.085 33.6997C111.675 33.6997 108.736 30.4894 108.736 24.8719C108.736 18.9863 111.876 15.6426 118.056 15.6426C120.461 15.6426 122.432 15.91 124.37 16.5788ZM104.659 30.5563C105.728 30.5563 106.73 30.3559 107.532 30.0549C107.432 31.0582 107.298 32.1952 107.098 33.1646C106.095 33.5659 105.027 33.6997 103.991 33.6997C100.416 33.6997 98.1444 32.0612 98.1444 27.9816V10.426C99.2804 10.058 100.683 9.89088 101.819 9.89088V16.2108H107.632C107.566 17.3479 107.465 18.3846 107.298 19.354H101.819V27.5471C101.819 29.7206 102.889 30.5563 104.659 30.5563ZM94.4688 22.0628V33.2985H90.7941V22.6982C90.7941 20.0567 89.9253 18.7859 86.2506 18.7859C85.3821 18.7859 84.3464 18.886 83.3443 19.0534V33.2985H79.6696V16.5788C82.008 16.0103 84.5802 15.6426 86.3511 15.6426C92.4978 15.6426 94.4688 18.0166 94.4688 22.0628ZM71.985 29.4864V18.9863C71.2167 18.8528 70.3813 18.7859 69.3458 18.7859C65.5373 18.7859 63.7669 21.1268 63.7669 24.8719C63.7669 28.2827 65.1366 30.6902 68.4103 30.6902C69.8468 30.6902 71.0163 30.2222 71.985 29.4864ZM75.6597 16.5788V33.2985H72.2856L72.0852 31.2922C71.1497 32.7634 69.7132 33.6997 67.3748 33.6997C62.9651 33.6997 60.0254 30.4894 60.0254 24.8719C60.0254 18.9863 63.1655 15.6426 69.3458 15.6426C71.751 15.6426 73.7221 15.91 75.6597 16.5788ZM42.2852 32.5629C42.352 31.1916 42.5524 30.2554 42.9197 29.1855C44.7906 30.0549 47.196 30.4894 49.0335 30.4894C52.1402 30.4894 53.8775 29.4864 53.8775 27.5134C53.8775 25.5739 52.608 24.6711 49.4676 23.3003L47.764 22.5645C44.6236 21.1935 42.4856 19.4211 42.4856 15.8766C42.4856 12.0646 45.1248 9.62346 50.5368 9.62346C52.7082 9.62346 54.746 9.92455 56.6503 10.5931C56.5501 11.9307 56.3161 12.9674 55.9821 13.937C54.1781 13.2683 52.0401 12.9674 50.5034 12.9674C47.597 12.9674 46.2605 14.1044 46.2605 15.8766C46.2605 17.6155 47.5634 18.6186 49.902 19.6219L51.7061 20.391C55.9488 22.1968 57.7192 24.1026 57.7192 27.3463C57.7192 31.1916 54.8128 33.8336 49.1337 33.8336C46.3943 33.8336 44.1561 33.4322 42.2852 32.5629ZM25.4936 16.0769C25.4406 14.8562 25.0993 13.6452 24.4681 12.5506L18.8988 2.89549C18.4742 2.15914 18.1807 1.37014 18.0178 0.561008L17.7852 0.964752C16.4067 3.35424 16.4067 6.29871 17.7849 8.68843L22.2403 16.4126C23.6187 18.8026 23.6187 21.7468 22.2403 24.1367L22.0075 24.5402C21.8447 23.7311 21.5513 22.9421 21.1266 22.2058L17.0479 15.1345L14.4435 10.6194C14.0188 9.88305 13.7256 9.0943 13.5626 8.28516L13.3298 8.68867C11.9561 11.0703 11.9518 14.0027 13.3163 16.3882L13.3158 16.3884L17.7852 24.1367C19.1636 26.5265 19.1636 29.4709 17.7852 31.8607L17.5523 32.2644C17.3894 31.4553 17.0962 30.6663 16.6715 29.9299L11.1023 20.2748C10.3555 18.9796 10.0142 17.5221 10.0765 16.0778C4.11477 17.6371 0 20.9476 0 24.7804C0 30.1127 7.9626 34.4355 17.7852 34.4355C27.6077 34.4355 35.5703 30.1127 35.5703 24.7804C35.5703 20.9474 31.4558 17.6359 25.4936 16.0769ZM229 56.4862C228.955 56.9165 228.886 57.4148 228.796 57.8451C228.117 58.094 227.46 58.2071 226.759 58.2071C224.588 58.2071 223.254 57.1203 223.254 54.5839V42.3785C223.728 42.2194 224.36 42.1294 224.836 42.1294V46.3182H228.931C228.91 46.8621 228.863 47.3147 228.773 47.745H224.836V54.403C224.836 56.1239 225.627 56.8489 227.032 56.8489C227.664 56.8489 228.389 56.7126 229 56.4862ZM220.447 50.2814V57.9354H218.863V50.5761C218.863 48.4697 218.072 47.3827 215.289 47.3827C214.474 47.3827 213.524 47.4963 212.665 47.6999V57.9354H211.08V46.6129C212.596 46.2052 214.067 45.979 215.334 45.979C219.159 45.979 220.447 47.5411 220.447 50.2814ZM200.132 51.2098H207.009V51.1195C207.009 48.8775 205.924 47.36 203.683 47.36C201.421 47.36 200.312 48.8547 200.132 51.2098ZM208.503 52.6365H200.132C200.335 55.3541 201.76 56.8034 204.339 56.8034C205.561 56.8034 206.919 56.5317 208.141 55.8295C208.096 56.2372 208.006 56.8489 207.892 57.3468C206.76 58.0037 205.583 58.2071 204.294 58.2071C200.516 58.2071 198.525 55.9203 198.525 52.0254C198.525 48.6511 200.041 45.979 203.752 45.979C207.146 45.979 208.593 48.3111 208.593 51.2323C208.593 51.7082 208.569 52.1835 208.503 52.6365ZM196.285 50.2814V57.9354H194.702V50.5306C194.702 48.4697 193.706 47.3827 191.376 47.3827C190.335 47.3827 189.317 47.6319 188.367 48.0396C188.616 48.6283 188.751 49.3758 188.751 50.2814V57.9354H187.168V50.4853C187.168 48.2883 186.263 47.3827 183.842 47.3827C182.983 47.3827 182.01 47.4963 181.127 47.6999V57.9354H179.543V46.6129C181.06 46.2052 182.553 45.979 184.001 45.979C185.584 45.979 186.761 46.2732 187.553 46.9301C188.797 46.3408 190.132 45.979 191.512 45.979C194.928 45.979 196.285 47.5411 196.285 50.2814ZM168.594 51.2098H175.471V51.1195C175.471 48.8775 174.385 47.36 172.146 47.36C169.883 47.36 168.775 48.8547 168.594 51.2098ZM176.965 52.6365H168.594C168.797 55.3541 170.223 56.8034 172.802 56.8034C174.024 56.8034 175.381 56.5317 176.603 55.8295C176.557 56.2372 176.467 56.8489 176.354 57.3468C175.223 58.0037 174.046 58.2071 172.757 58.2071C168.978 58.2071 166.988 55.9203 166.988 52.0254C166.988 48.6511 168.503 45.979 172.214 45.979C175.607 45.979 177.055 48.3111 177.055 51.2323C177.055 51.7082 177.033 52.1835 176.965 52.6365ZM163.481 55.7387V47.6546C162.802 47.4735 162.101 47.3827 161.286 47.3827C158.254 47.3827 156.875 49.1492 156.875 52.1835C156.875 55.1047 158.141 56.8937 160.607 56.8937C161.784 56.8937 162.734 56.4637 163.481 55.7387ZM165.064 46.6129V57.5051C165.064 60.653 163.413 62.6006 159.635 62.6006C158.481 62.6006 157.304 62.3967 156.241 61.9439C156.241 61.5586 156.309 60.9475 156.399 60.5397C157.44 61.0383 158.707 61.2417 159.635 61.2417C162.078 61.2417 163.481 60.2455 163.481 57.7092V57.0978C162.734 57.7545 161.716 58.2071 160.472 58.2071C157.259 58.2071 155.268 56.0559 155.268 52.1835C155.268 48.198 157.237 45.979 161.286 45.979C162.689 45.979 163.865 46.1599 165.064 46.6129ZM148.345 56.8937C149.522 56.8937 150.472 56.4637 151.218 55.7387V47.6546C150.54 47.4735 149.838 47.3827 149.024 47.3827C145.993 47.3827 144.612 49.1492 144.612 52.1835C144.612 55.1047 145.879 56.8937 148.345 56.8937ZM152.802 46.6129V57.9354H151.332L151.287 57.0523C150.517 57.7318 149.477 58.2071 148.209 58.2071C144.997 58.2071 143.006 56.0559 143.006 52.1835C143.006 48.198 144.974 45.979 149.024 45.979C150.427 45.979 151.603 46.1599 152.802 46.6129ZM140.676 50.2814V57.9354H139.092V50.5761C139.092 48.4697 138.3 47.3827 135.518 47.3827C134.703 47.3827 133.753 47.4963 132.893 47.6999V57.9354H131.31V46.6129C132.825 46.2052 134.296 45.979 135.563 45.979C139.386 45.979 140.676 47.5411 140.676 50.2814ZM123.776 56.8937C124.952 56.8937 125.903 56.4637 126.649 55.7387V47.6546C125.971 47.4735 125.269 47.3827 124.454 47.3827C121.423 47.3827 120.043 49.1492 120.043 52.1835C120.043 55.1047 121.31 56.8937 123.776 56.8937ZM128.233 46.6129V57.9354H126.762L126.717 57.0523C125.948 57.7318 124.907 58.2071 123.64 58.2071C120.428 58.2071 118.437 56.0559 118.437 52.1835C118.437 48.198 120.405 45.979 124.454 45.979C125.857 45.979 127.034 46.1599 128.233 46.6129ZM116.197 57.9354H114.545L114.07 50.8473C113.934 48.6736 113.821 46.5676 113.753 44.507C112.916 46.8166 111.989 49.2397 111.106 51.4137L108.482 57.9354H107.283L104.478 50.8025C103.595 48.6283 102.781 46.4994 102.125 44.5297C102.034 46.4994 101.876 48.9 101.74 50.9834L101.197 57.9354H99.5682L100.79 42.3555C101.31 42.1969 102.238 42.1066 102.736 42.1066L107.916 55.4445L113.029 42.3555C113.618 42.1516 114.477 42.1066 115.02 42.1066L116.197 57.9354ZM94.0257 56.4862C93.9804 56.9165 93.9124 57.4148 93.822 57.8451C93.1434 58.094 92.4873 58.2071 91.786 58.2071C89.6141 58.2071 88.2792 57.1203 88.2792 54.5839V42.3785C88.7544 42.2194 89.3879 42.1294 89.8631 42.1294V46.3182H93.9579C93.9352 46.8621 93.8902 47.3147 93.7995 47.745H89.8631V54.403C89.8631 56.1239 90.6546 56.8489 92.0574 56.8489C92.691 56.8489 93.4151 56.7126 94.0257 56.4862ZM77.4652 51.2098H84.3428V51.1195C84.3428 48.8775 83.2569 47.36 81.0173 47.36C78.7546 47.36 77.6462 48.8547 77.4652 51.2098ZM85.8362 52.6365H77.4652C77.6687 55.3541 79.094 56.8034 81.6733 56.8034C82.895 56.8034 84.2524 56.5317 85.474 55.8295C85.4288 56.2372 85.3383 56.8489 85.2253 57.3468C84.0939 58.0037 82.9175 58.2071 81.6278 58.2071C77.8499 58.2071 75.8589 55.9203 75.8589 52.0254C75.8589 48.6511 77.3748 45.979 81.085 45.979C84.4785 45.979 85.9266 48.3111 85.9266 51.2323C85.9266 51.7082 85.9039 52.1835 85.8362 52.6365ZM66.1309 57.3242C66.1534 56.6901 66.2441 56.2595 66.3573 55.9428C67.4205 56.5545 68.8911 56.8261 70.0448 56.8261C71.7868 56.8261 72.8503 56.2823 72.8503 54.9919C72.8503 53.6327 71.6059 53.1572 70.5199 52.8177L69.4792 52.5007C67.4657 51.889 66.3573 50.8701 66.3573 49.0584C66.3573 47.0427 67.8956 45.979 70.4522 45.979C71.7643 45.979 72.986 46.1599 74.0264 46.5676C74.0039 46.9529 73.9362 47.4508 73.8002 47.9036C72.7598 47.5183 71.6059 47.3374 70.4972 47.3374C68.7554 47.3374 67.8729 47.9036 67.8729 49.0133C67.8729 50.2814 68.7554 50.6662 70.1578 51.1415L71.2212 51.5043C73.0087 52.1154 74.3886 52.9765 74.3886 54.9464C74.3886 57.007 72.8048 58.2071 70.09 58.2071C68.5065 58.2071 67.1943 57.9354 66.1309 57.3242ZM56.2443 57.3242C56.2668 56.6901 56.3573 56.2595 56.4705 55.9428C57.5337 56.5545 59.0043 56.8261 60.1583 56.8261C61.9 56.8261 62.9633 56.2823 62.9633 54.9919C62.9633 53.6327 61.7191 53.1572 60.6334 52.8177L59.5924 52.5007C57.5792 51.889 56.4705 50.8701 56.4705 49.0584C56.4705 47.0427 58.0089 45.979 60.5654 45.979C61.8773 45.979 63.0992 46.1599 64.1399 46.5676C64.1172 46.9529 64.0492 47.4508 63.9137 47.9036C62.873 47.5183 61.7191 47.3374 60.6106 47.3374C58.8686 47.3374 57.9864 47.9036 57.9864 49.0133C57.9864 50.2814 58.8686 50.6662 60.2712 51.1415L61.3345 51.5043C63.1217 52.1154 64.5021 52.9765 64.5021 54.9464C64.5021 57.007 62.9182 58.2071 60.2035 58.2071C58.6197 58.2071 57.3076 57.9354 56.2443 57.3242ZM51.7646 52.6138L48.7782 43.8048L45.7693 52.6138H51.7646ZM52.2622 54.1085H45.2716L43.9595 57.9354H42.2852L47.7375 42.3555C48.3031 42.2194 49.0498 42.1516 49.7284 42.1516L55.2486 57.9354H53.5744L52.2622 54.1085Z" fill="#DF2929"/>
</svg>
